<svg width="375" height="717" viewBox="0 0 375 717" fill="none" xmlns="http://www.w3.org/2000/svg">
<path d="M0 700.333L20.8333 698.953C41.6667 697.469 83.3333 694.865 125 697.547C166.667 700.333 208.333 708.667 250 712.833C291.667 717 333.333 717 354.167 717H375V692H354.167C333.333 692 291.667 692 250 692C208.333 692 166.667 692 125 692C83.3333 692 41.6667 692 20.8333 692H0V700.333Z" fill="#EB51C2"/>
<rect y="25" width="375" height="667" fill="#EB51C2"/>
<path d="M375 16.6667L354.167 18.0469C333.333 19.5312 291.667 22.1354 250 19.4531C208.333 16.6667 166.667 8.33334 125 4.16667C83.3333 0 41.6667 0 20.8333 0H0V25H20.8333C41.6667 25 83.3333 25 125 25C166.667 25 208.333 25 250 25C291.667 25 333.333 25 354.167 25H375V16.6667Z" fill="#EB51C2"/>
</svg>
