<?xml version="1.0" encoding="UTF-8"?>
<svg id="_レイヤー_1" data-name="レイヤー 1" xmlns="http://www.w3.org/2000/svg" viewBox="0 0 760.33 762.33">
  <defs>
    <style>
      .cls-1 {
        font-family: MonotypeCorsiva, 'Monotype Corsiva';
        font-size: 183.44px;
      }

      .cls-1, .cls-2 {
        fill: #000;
      }

      .cls-2 {
        stroke-width: 0px;
      }
    </style>
  </defs>
  <text class="cls-1" transform="translate(120.54 345.24) scale(1.03 1)"><tspan x="0" y="0">LOVE</tspan><tspan x="0" y="152.86">CHOCO</tspan></text>
  <path class="cls-2" d="M709.52,620.8c-87.01,102.77-226.59,155.29-359.8,138.43-77.14-9-151.56-40.76-211.36-90.31C-19.05,539.4-46.47,310.27,78.4,148.58,210.23-22.29,461.37-49.59,628.17,86.53c220.49,181.12,153.87,526.63-116.56,615.15-3.72,1.13-11.85,3.74-15.48,4.62-4.89,1.26-10.78,2.84-15.67,3.94-3.88.8-12.09,2.54-15.83,3.25-8.26,1.37-18.36,2.98-26.66,3.76-6.09.81-15.23,1.32-21.47,1.72-1.35.13-4.03.21-5.38.22-5.05.1-11.14.28-16.15.22-3.96-.13-12.34-.31-16.15-.48-3.23-.24-12.7-.94-16.11-1.2-7.12-.88-14.28-1.54-21.36-2.75-1.51-.2-11.74-2.03-13.27-2.25-6-1.41-12.44-2.57-18.4-4.07-3.58-.98-12.16-3.26-15.59-4.2-117.35-34.89-211.25-126.47-241.33-246.1-19.47-76.77-10.63-159.55,25.08-230.29.92-1.98,5.32-10.13,6.2-11.92.87-1.51,3.17-5.4,4.07-6.96,2.96-5.39,7.98-13.04,11.41-18.21,1.59-2.72,4.31-6.22,6.15-8.81,10.43-14.42,22.05-28.44,34.67-40.96,1.27-1.37,4.45-4.39,5.69-5.71,3.63-3.5,10.18-9.31,13.9-12.66,2.68-2.24,9.7-7.92,12.47-10.21,2.81-2.11,10.21-7.55,12.95-9.59,3.61-2.54,10.81-7.19,14.51-9.7,10.31-6.23,20.81-12.38,31.67-17.6,4.5-2.06,10.05-4.9,14.62-6.75,3.35-1.39,11.57-4.89,14.92-6.05,3.62-1.29,9.01-3.26,12.63-4.55,7.01-2.17,16.08-5.1,23.18-6.77,24.13-6.38,49.25-9.87,74.18-10.94,6.12-.07,15.38-.43,21.46-.1,8.37-.03,18.42.93,26.77,1.57,8.29.95,18.3,2.2,26.55,3.76,0,0,5.29.9,5.29.9,0,0,5.24,1.15,5.24,1.15,0,0,10.48,2.3,10.48,2.3,3.32.85,12.3,3.33,15.54,4.18,11.68,3.6,24.13,7.78,35.35,12.57,3.34,1.41,11.52,4.91,14.7,6.53,3.41,1.71,8.61,4.21,12.03,5.92,0,0,2.35,1.3,2.35,1.3,0,0,9.38,5.2,9.38,5.2,6.24,3.49,12.23,7.41,18.28,11.21,2.86,1.91,10.44,7.28,13.22,9.16,2.93,2.21,9.78,7.56,12.74,9.81,11.04,9.04,21.75,18.63,31.53,29.03,2.05,2.14,5.42,5.56,7.32,7.84,1.43,1.55,7.5,8.75,8.77,10.14,2.48,3.04,5.8,7.49,8.25,10.56,3.14,3.92,7.95,11.18,10.9,15.27,49.51,74.06,65.4,167.74,42.77,253.89-65.5,243.43-372.87,318.87-546.7,138.51-4.27-4.26-10.2-11.31-14.21-15.94-4.36-5.47-8.93-11.22-12.92-16.99-1.76-2.59-4.44-6.17-6.08-8.77-1.14-1.68-6.1-9.77-7.11-11.29-.82-1.33-3.08-5.5-3.94-6.97-36.91-65.06-47.56-144.26-29.3-216.79.58-2.97,2.04-7.32,2.81-10.29.78-3.07,2.1-7.24,3.13-10.19,0,0,3.44-10.09,3.44-10.09,1.41-3.46,4.48-11.54,5.96-14.84,12-27.75,28.32-53.52,47.84-76.56-18.24,21.77-33.91,45.81-45.42,71.8,0,0-2.2,4.85-2.2,4.85,0,0-.55,1.21-.55,1.21,0,0-.49,1.24-.49,1.24,0,0-.97,2.48-.97,2.48,0,0-3.9,9.91-3.9,9.91-1.96,5.84-4.99,14.38-6.5,20.28-17.24,59.66-14.65,124.89,6.9,183.1.95,2.46,2.86,7.48,3.81,9.94,2.09,4.89,4.25,9.76,6.44,14.6,3.21,6.32,6.23,12.75,9.86,18.85,1.5,2.61,3.7,6.69,5.37,9.18,0,0,5.7,8.99,5.7,8.99,0,0,.71,1.12.71,1.12,2.52,3.6,5.91,8.35,8.44,11.95,92.75,124.88,268.52,162.33,405.8,90.92,75.7-38.67,134.36-109.21,158.23-190.78,29.14-97.95,7.21-205.55-57.43-284.6-2.99-3.82-8.89-10.34-12.07-14.07-3.38-3.49-7.64-7.96-11.02-11.45-8.27-7.96-16.78-15.66-25.72-22.86-2.9-2.21-9.83-7.54-12.62-9.66-2.63-1.81-10.31-7.11-13.09-9.01-5.99-3.74-11.91-7.6-18.08-11.03-1.44-.82-10.18-5.59-11.6-6.39-5.31-2.54-11.33-5.67-16.7-8.04-12.58-5.55-26.44-10.97-39.62-14.91-2.81-.98-7.22-2.18-10.17-2.94,0,0-10.23-2.72-10.23-2.72,0,0-10.35-2.24-10.35-2.24,0,0-5.17-1.12-5.17-1.12,0,0-5.22-.88-5.22-.88,0,0-10.44-1.74-10.44-1.74,0,0-10.51-1.27-10.51-1.27-5.91-.82-15.05-1.34-21.09-1.79-5.06-.2-10.77-.3-15.87-.44-19.17.03-39.05,1.42-57.96,4.68-18.17,2.81-36.37,7.66-53.86,13.34-3.55,1.3-8.86,3.21-12.43,4.51-1.26.44-3.71,1.38-4.93,1.92-3.5,1.51-11.3,4.6-14.59,6.22-11.12,5.22-22.3,10.76-32.76,17.19-2.15,1.27-5.83,3.52-7.93,4.76,0,0-1.1.74-1.1.74,0,0-8.79,5.88-8.79,5.88-2.58,1.59-6.14,4.29-8.61,6.13,0,0-8.48,6.32-8.48,6.32,0,0-8.16,6.72-8.16,6.72-2.47,1.98-5.74,4.76-8,6.91-1.54,1.41-8.39,7.57-9.72,8.95-1.15,1.12-4.38,4.44-5.58,5.63-12.37,12.35-23.8,26.16-34,40.39-1.88,2.52-4.39,6.04-6.03,8.68-3.41,5.1-8.24,12.63-11.17,17.94-40.22,68.45-53.67,151.59-37.61,229.3,25.39,124.39,119.99,220.41,240.75,256.03,3.5.96,11.75,3.11,15.29,4.07,3.41.85,6.87,1.51,10.3,2.28,2.88.61,7.41,1.67,10.34,2.09,10.02,1.81,21.24,3.34,31.33,4.37,3.35.31,12.5.85,15.78,1.13,3.99.23,11.82.25,15.82.42,5.85.08,12.59-.26,18.45-.32,0,0,2.63-.18,2.63-.18,0,0,10.52-.72,10.52-.72,7.01-.46,13.98-1.48,20.97-2.25,3.34-.46,12.34-2.06,15.61-2.53,3.96-.67,11.54-2.49,15.48-3.23,4.81-1,10.53-2.74,15.32-3.9,243.5-67.23,339.44-361.58,176.45-556.5-54.14-64.56-131.15-108.78-213.78-124.68C214.16-28.42-8.27,163.07,13.94,411.48c10.31,104.54,64.89,198.02,149.4,260.07,54.84,40.35,120.36,66.15,188.01,73.86,128.58,15.9,263.09-34.99,346.76-134.35,0,0,11.41,9.74,11.41,9.74h0Z"/>
</svg>