<svg width="60" height="60" viewBox="0 0 60 60" fill="none" xmlns="http://www.w3.org/2000/svg">
<path d="M30 0C33.9782 0 37.7936 1.58035 40.6066 4.3934C43.4197 7.20644 45 11.0218 45 15C45 18.9782 43.4197 22.7936 40.6066 25.6066C37.7936 28.4196 33.9782 30 30 30C26.0218 30 22.2064 28.4196 19.3934 25.6066C16.5804 22.7936 15 18.9782 15 15C15 11.0218 16.5804 7.20644 19.3934 4.3934C22.2064 1.58035 26.0218 0 30 0ZM30 37.5C46.575 37.5 60 44.2125 60 52.5V60H0V52.5C0 44.2125 13.425 37.5 30 37.5Z" fill="white"/>
</svg>
